# xmcd CD database file
#
# Track frame offsets:
#	187
#	14225
#	23437
#	34275
#	51415
#	63240
#	75265
#	87752
#	105212
#	115902
#	128402
#	142100
#
# Disc length: 2053 seconds
#
# Revision: 1
# Processed by: cddbd v1.5.1PL0 Copyright (c) Steve Scherf et al.
# Submitted via: CDex 1.51
#
DISCID=9008030c
DTITLE=Walter Wanderley - Rain Forest
DYEAR=1966
DGENRE=Bossa Nova
TTITLE0=Summer Samba (Samba de Verao)
TTITLE1=It's Easy to Say Good-Bye (E Fazil Dizer Adeus)
TTITLE2=Cried, Cried (Chorou, Chorou)
TTITLE3=Rain (Chuva)
TTITLE4=The Girl from Ipanema
TTITLE5=Beloved Melancholy (Saudade Querida)
TTITLE6=Taste of Sadness (Cheiro de Saudades)
TTITLE7=Beach Samba (Bossa Na Praita)
TTITLE8=Call Me
TTITLE9=Cry Out Your Sadness (Chora Tua Tristeza)
TTITLE10=The Great Love (O Grande Amor)
TTITLE11=Song of the Jet (Samba Do Aviao)
EXTD=YEAR: 1966
EXTT0=
EXTT1=
EXTT2=
EXTT3=
EXTT4=
EXTT5=
EXTT6=
EXTT7=
EXTT8=
EXTT9=
EXTT10=
EXTT11=
PLAYORDER=
